<svg xmlns="http://www.w3.org/2000/svg" xmlns:xlink="http://www.w3.org/1999/xlink" id="Слой_1" width="28" height="42" x="0" y="0" enable-background="new 0 0 28 42" version="1.1" viewBox="0 0 28 42" xml:space="preserve"><g opacity=".7"><path stroke="#FFF" stroke-miterlimit="3" stroke-width="3" d="M10.807,33.922v0.174h17.011v7.547H0.227v-7.086l12.013-11.321 c2.416-2.286,4.116-4.201,5.1-5.747c0.984-1.545,1.477-3.173,1.477-4.883c0-3.802-2.075-5.704-6.226-5.704 c-3.604,0-7.054,1.412-10.347,4.234V3.128c3.644-2.323,7.755-3.485,12.334-3.485c4.287,0,7.634,1.062,10.04,3.183 c2.406,2.122,3.609,4.988,3.609,8.599c0,4.821-2.933,9.805-8.798,14.951L10.807,33.922z"/></g></svg>